<?xml version="1.0" encoding="UTF-8" standalone="no"?>
<svg
   xmlns:dc="http://purl.org/dc/elements/1.1/"
   xmlns:cc="http://creativecommons.org/ns#"
   xmlns:rdf="http://www.w3.org/1999/02/22-rdf-syntax-ns#"
   xmlns:svg="http://www.w3.org/2000/svg"
   xmlns="http://www.w3.org/2000/svg"
   xmlns:sodipodi="http://sodipodi.sourceforge.net/DTD/sodipodi-0.dtd"
   xmlns:inkscape="http://www.inkscape.org/namespaces/inkscape"
   width="3637.9294"
   height="1042.8127"
   viewBox="0 0 962.5355 275.91087"
   version="1.1"
   id="svg8"
   inkscape:version="1.0.2 (e86c870879, 2021-01-15)"
   sodipodi:docname="branding.svg">
  <defs
     id="defs2">
    <clipPath
       clipPathUnits="userSpaceOnUse"
       id="clipPath26">
      <path
         d="M 0,472 H 1279.866 V 0 H 0 Z"
         id="path24" />
    </clipPath>
  </defs>
  <sodipodi:namedview
     id="base"
     pagecolor="#ffffff"
     bordercolor="#666666"
     borderopacity="1.0"
     inkscape:pageopacity="0.0"
     inkscape:pageshadow="2"
     inkscape:zoom="0.175"
     inkscape:cx="709.03469"
     inkscape:cy="605.18474"
     inkscape:document-units="px"
     inkscape:current-layer="layer1"
     inkscape:document-rotation="0"
     showgrid="false"
     units="px"
     inkscape:window-width="1920"
     inkscape:window-height="1015"
     inkscape:window-x="0"
     inkscape:window-y="0"
     inkscape:window-maximized="1" />
  <metadata
     id="metadata5">
    <rdf:RDF>
      <cc:Work
         rdf:about="">
        <dc:format>image/svg+xml</dc:format>
        <dc:type
           rdf:resource="http://purl.org/dc/dcmitype/StillImage" />
        <dc:title />
      </cc:Work>
    </rdf:RDF>
  </metadata>
  <g
     inkscape:label="Layer 1"
     inkscape:groupmode="layer"
     id="layer1"
     transform="translate(-22.45657,-121.30618)">
    <g
       id="g22"
       clip-path="url(#clipPath26)"
       transform="matrix(0.8302646,0,0,-0.8302646,-25.328254,470.83673)">
      <g
         id="g28"
         transform="translate(230.8658,298.4355)">
        <path
           d="m 0,0 c -17.924,3.364 -35.554,-6.101 -43.543,-19.264 0.338,-0.093 0.657,-0.209 0.986,-0.266 7.63,-1.323 15.191,-2.948 22.635,-5.093 0.699,-0.202 1.277,-0.145 1.916,0.25 2.266,1.401 4.723,2.346 7.366,2.725 0.727,0.105 1.106,0.425 1.428,1.056 3.248,6.373 6.256,12.855 8.864,19.518 C -0.212,-0.728 -0.117,-0.366 0,0 m -30.824,-79.863 c 0.117,0.559 0.228,1.013 0.308,1.473 1.261,7.299 2.825,14.532 4.874,21.651 0.321,1.115 0.226,2.014 -0.361,3.001 -1.615,2.71 -2.545,5.655 -2.697,8.819 -0.036,0.769 -0.325,1.19 -1.064,1.514 -6.274,2.749 -12.621,5.309 -19.111,7.507 -0.384,0.13 -0.779,0.231 -1.178,0.348 -3.511,-18.504 5.759,-35.881 19.229,-44.313 m 67.195,29.671 c 1.508,10.017 0.03,19.393 -4.813,28.068 -4.042,7.241 -9.6,13.132 -17.176,17.218 -0.182,-1.311 -0.344,-2.43 -0.492,-3.552 -0.886,-6.71 -2.04,-13.374 -3.486,-19.986 -0.167,-0.765 -0.096,-1.373 0.376,-2.019 1.99,-2.723 3.335,-5.731 3.824,-9.087 0.096,-0.657 0.413,-1.02 1.008,-1.323 6.416,-3.253 12.913,-6.326 19.63,-8.915 0.31,-0.119 0.626,-0.225 1.129,-0.404 m -50.924,-35.984 c 4.311,-1.565 16.663,-0.944 24.301,2.351 9.316,4.02 16.449,10.38 21.68,19.284 -1.127,0.172 -2.035,0.332 -2.948,0.447 -6.798,0.86 -13.543,2.024 -20.238,3.471 -1.085,0.234 -1.922,0.115 -2.862,-0.506 -2.678,-1.768 -5.503,-3.238 -8.777,-3.586 -0.965,-0.102 -1.923,-0.271 -2.898,-0.412 -3.1,-6.924 -5.927,-13.888 -8.258,-21.049 M 7.007,22.392 c -10.799,2.363 -21.42,1.864 -31.856,-0.93 -14.156,-3.791 -25.617,-11.837 -34.778,-23.232 -3.333,-4.144 -8.4,-12.734 -8.539,-14.657 0.296,-0.027 0.592,-0.051 0.888,-0.079 3.347,-0.319 6.698,-0.604 10.041,-0.968 2.834,-0.309 5.661,-0.686 8.485,-1.083 0.814,-0.114 1.322,0.072 1.813,0.779 1.164,1.678 2.412,3.301 3.673,4.91 5.813,7.422 13.414,12.209 22.306,15.084 3.796,1.228 7.725,1.685 11.68,1.98 2.813,0.21 5.618,0.125 8.415,-0.244 0.746,-0.099 1.494,-0.191 2.241,-0.287 2.25,6.164 4.185,12.28 5.631,18.727 m -40.772,-126.975 c 0.074,0.499 0.146,0.868 0.182,1.241 0.34,3.56 0.643,7.124 1.022,10.68 0.267,2.496 0.597,4.988 0.983,7.469 0.15,0.966 -0.008,1.629 -0.916,2.105 -0.56,0.293 -1.045,0.732 -1.558,1.112 -3.258,2.41 -6.462,4.894 -9.072,8.022 -9.299,11.147 -12.664,23.967 -10.685,38.27 0.058,0.414 0.087,0.832 0.139,1.34 -6.238,1.963 -12.47,3.697 -18.83,4.965 -6.978,-32.85 11.196,-63.139 38.735,-75.204 m 73.691,53.136 c 2.897,-1.386 15.472,-5.176 18.634,-5.596 6.816,30.309 -9.246,63.299 -39.836,75.717 -1.205,-6.556 -2.41,-13.113 -3.645,-19.832 9.164,-4.729 15.981,-11.85 20.599,-21.07 4.64,-9.26 5.596,-19.077 4.248,-29.219 m -60.656,-57.24 c 13.103,-3.242 32.388,-1.993 48.445,8.078 12.335,7.735 21.709,18.14 27.244,31.739 -6.66,1.245 -13.174,2.463 -19.835,3.708 -3.254,-5.9 -7.318,-11.199 -12.748,-15.367 -5.439,-4.177 -11.374,-7.363 -18.11,-8.796 -6.607,-1.405 -13.284,-1.908 -19.936,-0.537 -1.112,-2.633 -4.071,-13.681 -5.06,-18.825 m -51.385,92.634 c 4.351,10.042 10.374,19.025 18.82,26.268 8.418,7.218 17.956,12.345 28.697,15.06 10.7,2.705 21.52,2.97 32.325,0.707 1.027,2.906 3.208,17.866 2.905,19.732 -50.16,9.89 -92.679,-22.973 -103.842,-61.313 6.926,-0.149 13.86,-0.298 21.095,-0.454 m -23.717,-9.713 c -3.671,-16.555 -2.815,-42.271 11.821,-65.308 11.844,-18.642 28.2,-31.721 49.524,-38.388 0.027,0.323 0.067,0.61 0.073,0.897 0.136,6.429 0.256,12.859 0.422,19.288 0.017,0.643 -0.237,0.911 -0.741,1.155 -1.418,0.686 -2.821,1.405 -4.232,2.105 -7.242,3.593 -13.708,8.226 -19.231,14.165 -4.494,4.832 -8.35,10.106 -11.406,15.958 -4.619,8.845 -7.262,18.222 -7.807,28.212 -0.303,5.556 -0.154,11.061 0.833,16.539 0.148,0.821 0.255,1.649 0.391,2.538 -6.6,1.279 -13.097,2.264 -19.647,2.839 m 71.568,-106.419 c 49.011,-9.5 91.715,21.749 103.616,61.385 -6.818,0.471 -13.643,0.943 -20.647,1.427 -3.387,-7.345 -7.155,-14.631 -12.78,-20.776 -5.631,-6.15 -12.009,-11.347 -19.37,-15.284 -7.305,-3.908 -15.02,-6.63 -23.276,-7.675 -8.242,-1.044 -16.463,-1.089 -24.59,0.732 -0.817,-1.874 -3.106,-17.308 -2.953,-19.809 M 19.264,22.518 c 0.196,-0.109 0.447,-0.263 0.711,-0.391 1.76,-0.859 3.524,-1.71 5.284,-2.568 7.917,-3.859 14.743,-9.14 20.568,-15.738 7.366,-8.343 12.622,-17.824 15.555,-28.58 1.307,-4.794 1.868,-9.695 2.188,-14.63 0.324,-4.989 0.14,-9.96 -0.717,-14.896 -0.208,-1.204 -0.394,-2.411 -0.602,-3.693 6.612,-1.341 13.125,-2.454 19.854,-2.992 4.08,23.473 0.701,45.542 -12.002,65.663 C 58.34,23.322 41.939,36.38 20.717,42.999 20.239,36.269 19.758,29.486 19.264,22.518 m 1.489,24.56 c 2,-0.74 3.996,-1.471 5.986,-2.213 19.795,-7.386 35.081,-20.301 46.35,-38.041 4.261,-6.708 7.545,-13.916 9.971,-21.502 1.17,-3.655 2.108,-7.369 2.771,-11.144 0.928,-5.294 1.336,-10.652 1.522,-16.015 0.206,-5.932 -0.324,-11.828 -1.37,-17.674 -0.101,-0.565 -0.174,-1.135 -0.272,-1.782 6.719,-0.517 13.255,-0.662 19.892,-0.503 4.335,29.671 -0.998,57.231 -17.857,81.991 C 71.232,44.447 48.702,60.563 19.893,67.559 20.18,60.725 20.464,53.97 20.753,47.078 M -97.209,-15.665 c 0.407,1.104 0.831,2.215 1.229,3.334 3.136,8.834 7.135,17.211 12.797,24.749 4.365,5.811 9.213,11.169 14.683,15.943 7.141,6.234 15.115,11.178 23.793,14.986 6.968,3.056 14.155,5.428 21.714,6.428 4.553,0.603 9.146,0.928 13.729,1.275 5.032,0.381 10.04,-0.055 15.029,-0.718 1.761,-0.234 3.514,-0.53 5.361,-0.811 0.487,6.609 0.786,13.134 0.505,19.657 -25.048,4.437 -58.948,0.319 -86.926,-21.21 -21.611,-16.629 -36.165,-37.937 -42.532,-64.741 6.933,0.373 13.684,0.735 20.618,1.108 M 83.193,-70.841 c -7.128,-22.829 -20.942,-40.627 -41.423,-53.112 -20.531,-12.516 -42.817,-15.803 -66.474,-12.009 -0.489,-6.6 -0.82,-13.156 -0.633,-19.712 67.759,-10.874 119.384,38.153 129.052,85.691 -6.752,-0.282 -13.504,-0.564 -20.522,-0.858 m -202.556,46.111 c -4.305,-24.426 -0.576,-58.228 20.926,-86.458 16.647,-21.854 38.121,-36.485 65.088,-42.888 -0.374,6.945 -0.74,13.737 -1.11,20.591 -0.32,0.128 -0.667,0.279 -1.022,0.408 -4.963,1.802 -9.928,3.607 -14.645,5.998 -10.306,5.223 -19.225,12.273 -26.954,20.821 -9.342,10.331 -15.969,22.229 -20.153,35.503 -2.008,6.37 -3.067,12.914 -3.556,19.559 -0.2,2.718 -0.487,5.441 -0.479,8.161 0.014,4.343 0.218,8.686 0.916,12.988 0.243,1.498 0.453,3.001 0.695,4.612 -6.614,0.529 -13.107,0.772 -19.706,0.705 m 248.805,-35.601 c 0.065,0.21 0.121,0.328 0.137,0.451 0.577,4.31 0.956,8.639 0.988,12.985 0.024,3.235 -0.104,6.472 -0.224,9.706 -0.189,5.109 -0.611,10.201 -1.359,15.259 -1.75,11.825 -5.249,23.14 -9.979,34.094 -7.743,17.93 -19.195,33.177 -33.565,46.3 -5.258,4.803 -10.772,9.3 -16.709,13.248 -8.686,5.778 -17.974,10.383 -27.724,14.074 -7.631,2.889 -15.561,4.664 -23.513,6.36 -0.266,0.056 -0.554,0.007 -0.781,0.007 0.951,-6.923 1.887,-13.743 2.829,-20.61 1.012,-0.285 2.03,-0.588 3.057,-0.856 6.475,-1.69 12.817,-3.813 18.904,-6.568 C 57.705,56.786 71.567,46.297 83.037,32.696 95.808,17.554 104.202,0.26 108.3,-19.118 c 1.362,-6.436 1.871,-12.967 2.234,-19.521 0.375,-6.786 0.101,-13.537 -0.858,-20.263 -0.129,-0.904 -0.221,-1.813 -0.344,-2.834 6.844,0.305 13.501,0.678 20.11,1.405 M 10.186,93.202 c -0.313,0.079 -0.515,0.16 -0.722,0.177 -3.437,0.283 -6.872,0.61 -10.314,0.823 -4.942,0.305 -9.881,0.034 -14.814,-0.269 -5.016,-0.308 -10.023,-0.746 -14.984,-1.581 -8.04,-1.354 -15.848,-3.563 -23.508,-6.331 -21.055,-7.605 -38.911,-19.949 -54.034,-36.371 -9.737,-10.573 -17.849,-22.227 -23.746,-35.374 -1.96,-4.374 -3.869,-8.77 -5.368,-13.326 -2.092,-6.357 -3.594,-12.869 -4.941,-19.418 -0.081,-0.394 -0.139,-0.792 -0.213,-1.217 6.977,0.863 13.806,1.707 20.715,2.561 0.13,0.392 0.292,0.827 0.419,1.271 0.455,1.598 0.906,3.196 1.344,4.798 2.562,9.369 6.188,18.3 11.059,26.709 3.316,5.725 7.121,11.116 11.326,16.221 4.617,5.606 9.712,10.745 15.315,15.368 18.973,15.656 40.695,24.637 65.213,26.849 8.015,0.723 15.998,0.456 23.973,-0.493 1.506,-0.18 3.017,-0.316 4.641,-0.485 -0.201,6.818 -0.653,13.465 -1.361,20.088 m 97.573,-162.82 c -0.376,-1.318 -0.786,-2.699 -1.163,-4.09 -2.405,-8.865 -5.572,-17.422 -10.023,-25.489 -6.521,-11.819 -14.695,-22.323 -24.721,-31.363 -9.862,-8.89 -20.905,-15.947 -33.152,-21.089 -8.151,-3.423 -16.554,-6.044 -25.288,-7.459 -7.953,-1.289 -15.973,-1.834 -24.037,-1.644 -4.089,0.097 -8.159,0.409 -12.207,1.005 -0.781,0.116 -1.572,0.172 -2.483,0.269 0.175,-6.803 0.54,-13.46 1.282,-20.281 35.348,-3.884 67.648,4.04 96.842,24.386 29.958,22.326 49.161,51.409 55.707,88.558 -6.947,-0.938 -13.799,-1.863 -20.757,-2.803 m -251.115,43.552 c -4.352,-33.116 3.674,-75.186 33.489,-108.228 21.474,-23.798 47.699,-38.8 79.422,-44.382 -0.863,6.988 -1.707,13.815 -2.561,20.723 -1.038,0.286 -2.096,0.596 -3.163,0.869 -13.203,3.372 -25.476,8.785 -36.747,16.491 -16.251,11.11 -28.999,25.332 -38.209,42.716 -9.265,17.488 -13.519,36.2 -13.448,55.938 0.018,5.202 0.421,10.381 1.181,15.53 0.071,0.483 0.082,0.974 0.129,1.557 -6.833,-0.087 -13.48,-0.539 -20.093,-1.214 m -23.379,1.872 c 0.396,0.03 0.61,0.027 0.817,0.066 6.269,1.193 12.536,2.396 18.808,3.579 0.581,0.11 0.888,0.38 0.999,0.965 0.247,1.296 0.534,2.585 0.806,3.876 1.324,6.286 2.856,12.519 4.821,18.638 1.617,5.036 3.655,9.911 6.001,14.64 18.09,36.483 46.404,61.243 85.122,74.006 6.641,2.189 13.423,3.866 20.367,4.736 4.602,0.576 9.235,0.922 13.858,1.32 7.408,0.638 14.81,0.513 22.203,-0.282 0.865,-0.093 1.736,-0.137 2.704,-0.211 -0.702,6.8 -1.68,13.391 -2.792,19.934 -33.858,3.086 -78.58,-4.839 -115.771,-35.739 -33.084,-27.487 -52.29,-62.733 -57.943,-105.528 M 15.981,96.226 c 0.732,-0.158 1.477,-0.325 2.225,-0.479 6.127,-1.266 12.253,-2.556 18.22,-4.463 16.827,-5.376 32.032,-13.77 45.73,-24.882 14.885,-12.075 26.812,-26.613 35.782,-43.552 10.429,-19.691 15.832,-40.694 16.3,-62.97 0.122,-5.801 -0.219,-11.581 -0.747,-17.354 -0.073,-0.789 -0.096,-1.583 -0.15,-2.501 6.807,0.807 13.447,1.65 20.167,2.919 2.647,43.187 -8.455,82.022 -35.892,115.682 -32.308,39.638 -75.504,54.946 -106.12,57.925 1.484,-6.725 2.966,-13.44 4.485,-20.325 m -45.822,-278.772 c -2.128,0.46 -4.245,0.911 -6.36,1.376 -6.778,1.491 -13.502,3.172 -20.02,5.597 -11.198,4.167 -21.647,9.756 -31.451,16.562 -9.601,6.665 -18.213,14.443 -25.875,23.264 -9.34,10.752 -16.918,22.63 -22.64,35.681 -4.03,9.194 -7.138,18.682 -9.144,28.528 -1.159,5.686 -1.813,11.437 -2.221,17.216 -0.258,3.652 -0.451,7.313 -0.539,10.973 -0.117,4.858 0.178,9.706 0.698,14.539 0.081,0.744 0.119,1.492 0.176,2.239 -2.463,0.079 -18.434,-2.258 -20.01,-2.901 -3.922,-46.914 12.249,-96.861 52.232,-132.962 25.344,-22.884 55.042,-36.435 89.064,-40.456 -1.317,6.853 -2.609,13.573 -3.91,20.344 m 9.037,-20.914 c 38.232,-3.344 87.598,6.799 126.7,45.544 26.846,26.6 42.454,58.762 46.971,96.347 -6.86,-1.517 -13.582,-3.005 -20.373,-4.507 -0.106,-0.411 -0.234,-0.856 -0.336,-1.306 -0.787,-3.488 -1.556,-6.98 -2.356,-10.465 -1.221,-5.319 -2.768,-10.547 -4.707,-15.643 -2.289,-6.016 -5.042,-11.827 -8.149,-17.469 -7.737,-14.048 -17.538,-26.464 -29.458,-37.192 -10.523,-9.47 -22.188,-17.236 -35.05,-23.162 -13.038,-6.008 -26.614,-10.234 -40.92,-11.813 -7.7,-0.85 -15.429,-1.466 -23.192,-1.143 -2.722,0.113 -5.439,0.318 -8.157,0.498 -1.217,0.082 -2.432,0.206 -3.82,0.325 0.712,-6.81 1.646,-13.443 2.847,-20.014 m 179.819,159.813 c -0.014,-91.92 -74.458,-166.303 -166.535,-166.118 -91.388,0.184 -165.876,73.91 -165.792,166.331 0.084,92.294 74.685,166.192 166.519,165.985 92.207,-0.209 165.777,-74.854 165.808,-166.198"
           style="fill:#333333;fill-opacity:1;fill-rule:nonzero;stroke:none"
           id="path30" />
      </g>
      <g
         id="g32"
         transform="translate(472.8292,281.8604)">
        <path
           d="M 0,0 C 0,8.399 0.759,21.209 1.175,29.609 H 0.342 C -2.987,22.14 -6.734,14.815 -10.482,7.273 L -27.831,-21.583 H 43.792 V -44.904 H -57.153 v 21.166 L -8.896,55.746 H 28.539 V -76.441 H 0 Z"
           style="fill:#333333;fill-opacity:1;fill-rule:nonzero;stroke:none"
           id="path34" />
      </g>
      <g
         id="g36"
         transform="translate(527.9581,221.5078)">
        <path
           d="m 0,0 13.767,19.33 c 7.91,-7.298 17.289,-13.223 28.55,-13.223 13.514,0 22.202,7.172 22.202,20.734 0,13.218 -8.518,20.439 -20.757,20.439 -7.664,0 -11.654,-1.689 -19.564,-6.757 l -13.644,8.818 3.624,66.758 H 89.143 V 90.375 H 40.586 L 38.409,65.583 c 5.017,2.141 9.253,3.034 14.687,3.034 22.822,0 42.095,-12.906 42.095,-41.018 0,-29.338 -22.702,-46.185 -48.489,-46.185 C 25.126,-18.586 10.383,-10.383 0,0"
           style="fill:#333333;fill-opacity:1;fill-rule:nonzero;stroke:none"
           id="path38" />
      </g>
      <g
         id="g40"
         transform="translate(685.234,219.3623)">
        <path
           d="M 0,0 C 31.236,0 46.817,19.574 46.817,53.354 46.817,87.133 31.236,105.745 0,105.745 H -15.161 V 0 Z m -32.165,119.687 h 33.43 c 41.087,0 63.115,-23.879 63.115,-66.333 0,-42.454 -22.028,-67.297 -62.366,-67.297 h -34.179 z"
           style="fill:#981c20;fill-opacity:1;fill-rule:nonzero;stroke:none"
           id="path42" />
      </g>
      <g
         id="g44"
         transform="translate(778.3463,304.3901)">
        <path
           d="m 0,0 h 13.835 l 1.414,-18.023 h 0.558 c 6.889,12.557 17.004,20.467 28.138,20.467 4.382,0 7.458,-0.556 10.565,-2.036 l -3.126,-14.693 c -3.408,1.073 -5.636,1.63 -9.601,1.63 -8.359,0 -18.346,-6.023 -25.036,-22.765 V -98.971 H 0 Z"
           style="fill:#981c20;fill-opacity:1;fill-rule:nonzero;stroke:none"
           id="path46" />
      </g>
      <path
         d="m 850.621,304.39 h 16.747 v -98.971 h -16.747 z m -3.066,31.165 c 0,6.576 5.057,10.818 11.568,10.818 6.512,0 11.569,-4.242 11.569,-10.818 0,-6.322 -5.057,-10.821 -11.569,-10.821 -6.511,0 -11.568,4.499 -11.568,10.821"
         style="fill:#981c20;fill-opacity:1;fill-rule:nonzero;stroke:none"
         id="path48" />
      <g
         id="g50"
         transform="translate(888.0778,304.3901)">
        <path
           d="m 0,0 h 17.263 l 18.715,-56.224 c 2.957,-9.666 6.172,-19.738 9.131,-29.188 h 0.815 c 2.957,9.45 6.172,19.522 9.131,29.188 L 73.771,0 h 16.404 l -35,-98.971 H 35.708 Z"
           style="fill:#981c20;fill-opacity:1;fill-rule:nonzero;stroke:none"
           id="path52" />
      </g>
      <g
         id="g54"
         transform="translate(1060.0621,262.875)">
        <path
           d="M 0,0 C 0,19.833 -8.919,30.615 -24.396,30.615 -38.311,30.615 -50.744,19.445 -52.782,0 Z m -69.187,-8.099 c 0,32.212 21.709,52.058 44.491,52.058 25.244,0 39.496,-18.129 39.496,-46.441 0,-3.535 -0.3,-7.069 -0.782,-9.513 h -66.65 c 1.199,-20.966 14.019,-34.561 32.884,-34.561 9.496,0 17.298,3.066 24.628,7.91 l 5.998,-10.989 C 2.199,-55.312 -8.344,-59.9 -21.805,-59.9 c -26.38,0 -47.382,19.29 -47.382,51.801"
           style="fill:#981c20;fill-opacity:1;fill-rule:nonzero;stroke:none"
           id="path56" />
      </g>
      <g
         id="g58"
         transform="translate(1089.8639,216.7139)">
        <path
           d="m 0,0 8.27,11.031 c 8.592,-6.924 17.328,-11.725 29.214,-11.725 12.993,0 19.446,6.926 19.446,15.373 0,10.184 -11.683,14.685 -22.634,18.757 -13.869,5.07 -29.517,11.894 -29.517,28.59 0,15.835 12.687,28.094 34.139,28.094 12.319,0 23.1,-5.046 30.772,-11.121 L 61.679,68.268 c -6.815,5.036 -13.813,8.808 -22.57,8.808 -12.467,0 -18.222,-6.647 -18.222,-14.193 0,-9.411 10.759,-12.992 21.968,-17.172 14.276,-5.38 30.179,-11.186 30.179,-30.026 0,-16.05 -12.75,-29.424 -36.107,-29.424 C 22.867,-13.739 9.303,-7.78 0,0"
           style="fill:#981c20;fill-opacity:1;fill-rule:nonzero;stroke:none"
           id="path60" />
      </g>
      <g
         id="g62"
         transform="translate(431.9103,146.9639)">
        <path
           d="M 0,0 2.582,2.961 C 5.022,0.43 8.41,-1.24 11.934,-1.24 c 4.448,0 7.087,2.217 7.087,5.511 0,3.461 -2.455,4.566 -5.655,5.963 l -4.87,2.148 c -3.159,1.348 -6.864,3.743 -6.864,8.73 0,5.178 4.513,8.997 10.672,8.997 4.018,0 7.601,-1.74 9.983,-4.2 l -2.288,-2.771 c -2.078,1.961 -4.563,3.179 -7.695,3.179 -3.802,0 -6.32,-1.918 -6.32,-4.95 0,-3.267 2.956,-4.488 5.612,-5.61 l 4.831,-2.091 c 3.923,-1.686 6.984,-4.023 6.984,-9.064 0,-5.355 -4.426,-9.634 -11.553,-9.634 C 7.1,-5.032 2.963,-3.091 0,0"
           style="fill:#333333;fill-opacity:1;fill-rule:nonzero;stroke:none"
           id="path64" />
      </g>
      <g
         id="g66"
         transform="translate(461.0641,150.3145)">
        <path
           d="m 0,0 v 13.885 h -3.736 v 3.217 l 3.926,0.244 0.51,7.042 h 3.55 v -7.042 h 6.801 V 13.885 H 4.25 V -0.073 c 0,-3.071 0.988,-4.849 3.881,-4.849 0.892,0 2.045,0.337 2.861,0.674 l 0.821,-3.205 C 10.404,-7.932 8.722,-8.383 7.153,-8.383 1.81,-8.383 0,-4.996 0,0"
           style="fill:#333333;fill-opacity:1;fill-rule:nonzero;stroke:none"
           id="path68" />
      </g>
      <g
         id="g70"
         transform="translate(494.0724,155.0732)">
        <path
           d="m 0,0 c 0,5.754 -2.926,9.67 -7.245,9.67 -4.318,0 -7.244,-3.916 -7.244,-9.67 0,-5.754 2.926,-9.605 7.244,-9.605 C -2.926,-9.605 0,-5.754 0,0 m -18.88,0 c 0,8.379 5.48,13.207 11.635,13.207 C -1.09,13.207 4.391,8.379 4.391,0 4.391,-8.313 -1.09,-13.142 -7.245,-13.142 -13.4,-13.142 -18.88,-8.313 -18.88,0"
           style="fill:#333333;fill-opacity:1;fill-rule:nonzero;stroke:none"
           id="path72" />
      </g>
      <g
         id="g74"
         transform="translate(505.0573,167.6602)">
        <path
           d="m 0,0 h 3.511 l 0.357,-4.572 h 0.143 c 1.747,3.185 4.313,5.192 7.138,5.192 1.112,0 1.892,-0.141 2.68,-0.516 L 13.037,-3.624 C 12.171,-3.352 11.606,-3.21 10.6,-3.21 8.48,-3.21 5.945,-4.739 4.25,-8.986 V -25.109 H 0 Z"
           style="fill:#333333;fill-opacity:1;fill-rule:nonzero;stroke:none"
           id="path76" />
      </g>
      <g
         id="g78"
         transform="translate(535.61,148.6777)">
        <path
           d="M 0,0 V 6.973 C -8.415,5.961 -11.259,3.9 -11.259,0.691 c 0,-2.853 1.936,-4.014 4.4,-4.014 2.425,0 4.427,1.18 6.859,3.323 m -15.421,0.393 c 0,5.47 4.72,8.204 15.421,9.368 -0.01,3.231 -1.082,6.342 -5.183,6.342 -2.903,0 -5.52,-1.376 -7.487,-2.691 l -1.663,2.912 c 2.31,1.516 5.833,3.279 9.862,3.279 6.127,0 8.719,-4.073 8.719,-10.325 V -6.126 H 0.739 L 0.38,-3.125 H 0.239 c -2.393,-1.99 -5.187,-3.621 -8.303,-3.621 -4.204,0 -7.357,2.608 -7.357,7.139"
           style="fill:#333333;fill-opacity:1;fill-rule:nonzero;stroke:none"
           id="path80" />
      </g>
      <g
         id="g82"
         transform="translate(561.5807,159.3359)">
        <path
           d="m 0,0 c 0,3.649 -2.377,5.863 -5.335,5.863 -2.959,0 -5.336,-2.181 -5.336,-5.863 0,-3.655 2.442,-5.966 5.336,-5.966 C -2.442,-5.966 0,-3.655 0,0 m 3.221,-20.292 c 0,2.322 -1.764,3.116 -5.062,3.116 h -4.333 c -0.955,0 -2.146,0.103 -3.262,0.376 -1.794,-1.273 -2.562,-2.769 -2.562,-4.211 0,-2.697 2.721,-4.4 7.283,-4.4 4.785,0 7.936,2.497 7.936,5.119 m -18.925,-1.316 c 0,2.15 1.371,4.176 3.682,5.677 v 0.206 c -1.279,0.8 -2.246,2.143 -2.246,4.117 0,2.082 1.463,3.746 2.761,4.659 v 0.207 c -1.663,1.305 -3.251,3.746 -3.251,6.742 0,5.492 4.328,8.944 9.423,8.944 1.381,0 2.631,-0.272 3.544,-0.62 h 8.76 V 5.053 H 1.812 c 1.187,-1.142 2.046,-3.024 2.046,-5.166 0,-5.378 -4.061,-8.706 -9.193,-8.706 -1.219,0 -2.605,0.299 -3.742,0.851 -0.908,-0.759 -1.599,-1.591 -1.599,-2.967 0,-1.593 1.033,-2.725 4.4,-2.725 h 4.886 c 5.836,0 8.773,-1.832 8.773,-5.997 0,-4.665 -4.938,-8.683 -12.696,-8.683 -6.151,0 -10.391,2.409 -10.391,6.732"
           style="fill:#333333;fill-opacity:1;fill-rule:nonzero;stroke:none"
           id="path84" />
      </g>
      <g
         id="g86"
         transform="translate(588.7809,157.1279)">
        <path
           d="m 0,0 c 0,5.032 -2.263,7.767 -6.19,7.767 -3.531,0 -6.685,-2.834 -7.202,-7.767 z m -17.554,-2.055 c 0,8.172 5.508,13.207 11.287,13.207 6.405,0 10.02,-4.599 10.02,-11.782 0,-0.897 -0.075,-1.794 -0.198,-2.413 h -16.908 c 0.304,-5.32 3.555,-8.769 8.342,-8.769 2.409,0 4.389,0.779 6.248,2.007 l 1.521,-2.787 c -2.2,-1.441 -4.875,-2.604 -8.29,-2.604 -6.694,0 -12.022,4.893 -12.022,13.141"
           style="fill:#333333;fill-opacity:1;fill-rule:nonzero;stroke:none"
           id="path88" />
      </g>
      <g
         id="g90"
         transform="translate(606.985,146.9639)">
        <path
           d="M 0,0 2.581,2.961 C 5.022,0.43 8.41,-1.24 11.934,-1.24 c 4.449,0 7.087,2.217 7.087,5.511 0,3.461 -2.455,4.566 -5.655,5.963 l -4.87,2.148 c -3.159,1.348 -6.864,3.743 -6.864,8.73 0,5.178 4.513,8.997 10.672,8.997 4.017,0 7.601,-1.74 9.982,-4.2 l -2.288,-2.771 c -2.077,1.961 -4.562,3.179 -7.694,3.179 -3.802,0 -6.32,-1.918 -6.32,-4.95 0,-3.267 2.955,-4.488 5.612,-5.61 l 4.831,-2.091 c 3.923,-1.686 6.984,-4.023 6.984,-9.064 0,-5.355 -4.426,-9.634 -11.553,-9.634 C 7.1,-5.032 2.963,-3.091 0,0"
           style="fill:#333333;fill-opacity:1;fill-rule:nonzero;stroke:none"
           id="path92" />
      </g>
      <g
         id="g94"
         transform="translate(653.6471,155.0732)">
        <path
           d="m 0,0 c 0,5.754 -2.926,9.67 -7.245,9.67 -4.318,0 -7.244,-3.916 -7.244,-9.67 0,-5.754 2.926,-9.605 7.244,-9.605 C -2.926,-9.605 0,-5.754 0,0 m -18.88,0 c 0,8.379 5.482,13.207 11.635,13.207 6.154,0 11.636,-4.828 11.636,-13.207 0,-8.313 -5.482,-13.142 -11.636,-13.142 -6.153,0 -11.635,4.829 -11.635,13.142"
           style="fill:#333333;fill-opacity:1;fill-rule:nonzero;stroke:none"
           id="path96" />
      </g>
      <g
         id="g98"
         transform="translate(664.4254,147.5947)">
        <path
           d="M 0,0 V 31.757 H 4.25 V -0.31 c 0,-1.299 0.565,-1.816 1.184,-1.816 0.245,0 0.453,0 0.93,0.104 L 6.94,-5.267 C 6.338,-5.484 5.609,-5.663 4.495,-5.663 1.311,-5.663 0,-3.631 0,0"
           style="fill:#333333;fill-opacity:1;fill-rule:nonzero;stroke:none"
           id="path100" />
      </g>
      <g
         id="g102"
         transform="translate(677.2623,151.751)">
        <path
           d="M 0,0 V 15.909 H 4.248 V 0.549 c 0,-4.678 1.414,-6.679 4.737,-6.679 2.568,0 4.347,1.273 6.724,4.231 v 17.808 h 4.248 V -9.2 h -3.51 l -0.358,3.931 H 15.947 C 13.619,-8.009 11.113,-9.819 7.666,-9.819 2.375,-9.819 0,-6.406 0,0"
           style="fill:#333333;fill-opacity:1;fill-rule:nonzero;stroke:none"
           id="path104" />
      </g>
      <g
         id="g106"
         transform="translate(706.4469,150.3145)">
        <path
           d="m 0,0 v 13.885 h -3.736 v 3.217 l 3.925,0.244 0.511,7.042 h 3.55 v -7.042 h 6.802 V 13.885 H 4.25 V -0.073 c 0,-3.071 0.988,-4.849 3.881,-4.849 0.892,0 2.045,0.337 2.861,0.674 l 0.821,-3.205 C 10.404,-7.932 8.722,-8.383 7.153,-8.383 1.811,-8.383 0,-4.996 0,0"
           style="fill:#333333;fill-opacity:1;fill-rule:nonzero;stroke:none"
           id="path108" />
      </g>
      <path
         d="m 723.164,167.66 h 4.249 v -25.109 h -4.249 z m -0.778,7.906 c 0,1.669 1.284,2.746 2.935,2.746 1.651,0 2.934,-1.077 2.934,-2.746 0,-1.603 -1.283,-2.745 -2.934,-2.745 -1.651,0 -2.935,1.142 -2.935,2.745"
         style="fill:#333333;fill-opacity:1;fill-rule:nonzero;stroke:none"
         id="path110" />
      <g
         id="g112"
         transform="translate(752.8854,155.0732)">
        <path
           d="m 0,0 c 0,5.754 -2.926,9.67 -7.245,9.67 -4.318,0 -7.244,-3.916 -7.244,-9.67 0,-5.754 2.926,-9.605 7.244,-9.605 C -2.926,-9.605 0,-5.754 0,0 m -18.88,0 c 0,8.379 5.48,13.207 11.635,13.207 6.154,0 11.636,-4.828 11.636,-13.207 0,-8.313 -5.482,-13.142 -11.636,-13.142 -6.155,0 -11.635,4.829 -11.635,13.142"
           style="fill:#333333;fill-opacity:1;fill-rule:nonzero;stroke:none"
           id="path114" />
      </g>
      <g
         id="g116"
         transform="translate(763.8698,167.6602)">
        <path
           d="m 0,0 h 3.511 l 0.357,-3.621 h 0.143 c 2.392,2.354 4.975,4.241 8.422,4.241 5.29,0 7.667,-3.414 7.667,-9.819 v -15.91 h -4.249 v 15.361 c 0,4.677 -1.414,6.679 -4.737,6.679 -2.567,0 -4.346,-1.311 -6.864,-3.857 V -25.109 H 0 Z"
           style="fill:#333333;fill-opacity:1;fill-rule:nonzero;stroke:none"
           id="path118" />
      </g>
      <g
         id="g120"
         transform="translate(789.3444,145.4165)">
        <path
           d="m 0,0 2.097,2.798 c 2.18,-1.756 4.396,-2.974 7.411,-2.974 3.297,0 4.933,1.757 4.933,3.9 0,2.584 -2.962,3.726 -5.742,4.759 -3.518,1.286 -7.487,3.018 -7.487,7.253 0,4.018 3.219,7.128 8.661,7.128 3.125,0 5.859,-1.281 7.806,-2.822 L 15.646,17.32 c -1.728,1.277 -3.503,2.234 -5.726,2.234 -3.162,0 -4.622,-1.686 -4.622,-3.6 0,-2.389 2.729,-3.296 5.573,-4.357 3.622,-1.365 7.656,-2.838 7.656,-7.618 0,-4.072 -3.234,-7.464 -9.16,-7.464 C 5.8,-3.485 2.358,-1.974 0,0"
           style="fill:#333333;fill-opacity:1;fill-rule:nonzero;stroke:none"
           id="path122" />
      </g>
      <g
         id="g124"
         transform="translate(834.7174,145.9741)">
        <path
           d="m 0,0 c 5.797,0 9.214,2.089 9.214,6.657 0,4.178 -3.286,6.087 -9.214,6.087 H -5.901 V 0 Z m -0.882,16.053 c 5.767,0 8.153,2.127 8.153,5.564 0,3.96 -2.713,5.439 -7.957,5.439 H -5.901 V 16.053 Z m -9.333,14.426 h 10.064 c 6.893,0 11.661,-2.344 11.661,-8.303 0,-3.349 -1.784,-6.329 -4.953,-7.362 v -0.207 c 4.05,-0.798 6.895,-3.474 6.895,-8.112 0,-6.661 -5.273,-9.918 -12.832,-9.918 h -10.835 z"
           style="fill:#333333;fill-opacity:1;fill-rule:nonzero;stroke:none"
           id="path126" />
      </g>
      <g
         id="g128"
         transform="translate(851.2389,132.2471)">
        <path
           d="M 0,0 0.833,3.385 C 1.33,3.216 2.1,3.01 2.747,3.01 c 2.832,0 4.622,2.273 5.66,5.39 l 0.572,1.854 -10.075,25.159 h 4.378 l 5.124,-13.9 c 0.788,-2.18 1.632,-4.752 2.447,-7.074 h 0.208 c 0.711,2.283 1.424,4.855 2.11,7.074 l 4.475,13.9 h 4.162 L 12.347,8.236 C 10.575,3.254 7.981,-0.517 2.947,-0.517 1.779,-0.517 0.811,-0.31 0,0"
           style="fill:#333333;fill-opacity:1;fill-rule:nonzero;stroke:none"
           id="path130" />
      </g>
      <g
         id="g132"
         transform="translate(886.1549,146.9639)">
        <path
           d="M 0,0 2.581,2.961 C 5.022,0.43 8.41,-1.24 11.934,-1.24 c 4.449,0 7.087,2.217 7.087,5.511 0,3.461 -2.455,4.566 -5.655,5.963 l -4.87,2.148 c -3.159,1.348 -6.864,3.743 -6.864,8.73 0,5.178 4.513,8.997 10.672,8.997 4.017,0 7.601,-1.74 9.982,-4.2 l -2.288,-2.771 c -2.077,1.961 -4.562,3.179 -7.694,3.179 -3.802,0 -6.321,-1.918 -6.321,-4.95 0,-3.267 2.956,-4.488 5.613,-5.61 l 4.831,-2.091 c 3.923,-1.686 6.984,-4.023 6.984,-9.064 0,-5.355 -4.426,-9.634 -11.553,-9.634 C 7.1,-5.032 2.963,-3.091 0,0"
           style="fill:#333333;fill-opacity:1;fill-rule:nonzero;stroke:none"
           id="path134" />
      </g>
      <g
         id="g136"
         transform="translate(915.3082,150.3145)">
        <path
           d="m 0,0 v 13.885 h -3.736 v 3.217 l 3.926,0.244 0.51,7.042 h 3.55 v -7.042 h 6.802 V 13.885 H 4.25 V -0.073 c 0,-3.071 0.988,-4.849 3.882,-4.849 0.891,0 2.044,0.337 2.86,0.674 l 0.821,-3.205 C 10.404,-7.932 8.722,-8.383 7.153,-8.383 1.811,-8.383 0,-4.996 0,0"
           style="fill:#333333;fill-opacity:1;fill-rule:nonzero;stroke:none"
           id="path138" />
      </g>
      <g
         id="g140"
         transform="translate(948.317,155.0732)">
        <path
           d="m 0,0 c 0,5.754 -2.926,9.67 -7.245,9.67 -4.318,0 -7.244,-3.916 -7.244,-9.67 0,-5.754 2.926,-9.605 7.244,-9.605 C -2.926,-9.605 0,-5.754 0,0 m -18.88,0 c 0,8.379 5.48,13.207 11.635,13.207 6.154,0 11.636,-4.828 11.636,-13.207 0,-8.313 -5.482,-13.142 -11.636,-13.142 -6.155,0 -11.635,4.829 -11.635,13.142"
           style="fill:#333333;fill-opacity:1;fill-rule:nonzero;stroke:none"
           id="path142" />
      </g>
      <g
         id="g144"
         transform="translate(959.3014,167.6602)">
        <path
           d="m 0,0 h 3.511 l 0.357,-4.572 h 0.143 c 1.748,3.185 4.313,5.192 7.138,5.192 1.112,0 1.892,-0.141 2.68,-0.516 L 13.037,-3.624 C 12.172,-3.352 11.606,-3.21 10.601,-3.21 8.48,-3.21 5.945,-4.739 4.25,-8.986 V -25.109 H 0 Z"
           style="fill:#333333;fill-opacity:1;fill-rule:nonzero;stroke:none"
           id="path146" />
      </g>
      <g
         id="g148"
         transform="translate(989.8541,148.6777)">
        <path
           d="M 0,0 V 6.973 C -8.414,5.961 -11.259,3.9 -11.259,0.691 c 0,-2.853 1.937,-4.014 4.4,-4.014 2.425,0 4.427,1.18 6.859,3.323 m -15.421,0.393 c 0,5.47 4.72,8.204 15.421,9.368 -0.01,3.231 -1.081,6.342 -5.183,6.342 -2.903,0 -5.519,-1.376 -7.487,-2.691 l -1.663,2.912 c 2.311,1.516 5.833,3.279 9.862,3.279 6.127,0 8.72,-4.073 8.72,-10.325 V -6.126 H 0.739 L 0.38,-3.125 H 0.239 c -2.393,-1.99 -5.187,-3.621 -8.303,-3.621 -4.204,0 -7.357,2.608 -7.357,7.139"
           style="fill:#333333;fill-opacity:1;fill-rule:nonzero;stroke:none"
           id="path150" />
      </g>
      <g
         id="g152"
         transform="translate(1015.8258,159.3359)">
        <path
           d="m 0,0 c 0,3.649 -2.377,5.863 -5.336,5.863 -2.959,0 -5.336,-2.181 -5.336,-5.863 0,-3.655 2.443,-5.966 5.336,-5.966 C -2.442,-5.966 0,-3.655 0,0 m 3.22,-20.292 c 0,2.322 -1.763,3.116 -5.062,3.116 h -4.333 c -0.955,0 -2.146,0.103 -3.261,0.376 -1.795,-1.273 -2.562,-2.769 -2.562,-4.211 0,-2.697 2.72,-4.4 7.282,-4.4 4.785,0 7.936,2.497 7.936,5.119 m -18.925,-1.316 c 0,2.15 1.371,4.176 3.682,5.677 v 0.206 c -1.278,0.8 -2.246,2.143 -2.246,4.117 0,2.082 1.463,3.746 2.762,4.659 v 0.207 c -1.664,1.305 -3.251,3.746 -3.251,6.742 0,5.492 4.328,8.944 9.422,8.944 1.381,0 2.631,-0.272 3.545,-0.62 H 6.968 V 5.053 H 1.812 c 1.186,-1.142 2.045,-3.024 2.045,-5.166 0,-5.378 -4.06,-8.706 -9.193,-8.706 -1.219,0 -2.605,0.299 -3.742,0.851 -0.908,-0.759 -1.598,-1.591 -1.598,-2.967 0,-1.593 1.032,-2.725 4.4,-2.725 h 4.885 c 5.836,0 8.773,-1.832 8.773,-5.997 0,-4.665 -4.937,-8.683 -12.695,-8.683 -6.151,0 -10.392,2.409 -10.392,6.732"
           style="fill:#333333;fill-opacity:1;fill-rule:nonzero;stroke:none"
           id="path154" />
      </g>
      <g
         id="g156"
         transform="translate(1043.027,157.1279)">
        <path
           d="m 0,0 c 0,5.032 -2.264,7.767 -6.19,7.767 -3.531,0 -6.685,-2.834 -7.202,-7.767 z m -17.554,-2.055 c 0,8.172 5.508,13.207 11.287,13.207 6.405,0 10.021,-4.599 10.021,-11.782 0,-0.897 -0.076,-1.794 -0.199,-2.413 h -16.909 c 0.305,-5.32 3.556,-8.769 8.343,-8.769 2.409,0 4.389,0.779 6.248,2.007 l 1.521,-2.787 c -2.2,-1.441 -4.876,-2.604 -8.29,-2.604 -6.694,0 -12.022,4.893 -12.022,13.141"
           style="fill:#333333;fill-opacity:1;fill-rule:nonzero;stroke:none"
           id="path158" />
      </g>
      <g
         id="g160"
         transform="translate(1063.6901,176.4531)">
        <path
           d="M 0,0 H 19.54 V -3.651 H 4.313 v -10.623 h 12.844 v -3.651 H 4.313 V -30.25 h 15.744 v -3.652 H 0 Z"
           style="fill:#333333;fill-opacity:1;fill-rule:nonzero;stroke:none"
           id="path162" />
      </g>
      <g
         id="g164"
         transform="translate(1093.608,155.6548)">
        <path
           d="m 0,0 -7.596,12.005 h 4.608 L 0.372,6.497 C 1.143,5.115 1.995,3.696 2.831,2.315 h 0.206 c 0.76,1.381 1.509,2.8 2.269,4.182 l 3.067,5.508 h 4.429 L 5.205,-0.445 13.41,-13.104 H 8.804 l -3.7,5.836 C 4.231,-5.756 3.313,-4.207 2.375,-2.76 H 2.168 C 1.306,-4.207 0.491,-5.737 -0.371,-7.268 l -3.405,-5.836 h -4.429 z"
           style="fill:#333333;fill-opacity:1;fill-rule:nonzero;stroke:none"
           id="path166" />
      </g>
      <g
         id="g168"
         transform="translate(1129.5367,155.4482)">
        <path
           d="m 0,0 c 0,5.542 -1.892,9.257 -6.619,9.257 -2.126,0 -4.27,-1.17 -6.711,-3.427 V -7.331 c 2.272,-1.909 4.454,-2.61 6.113,-2.61 C -3.063,-9.941 0,-6.199 0,0 m -17.58,12.212 h 3.511 l 0.357,-2.898 h 0.143 c 2.27,1.887 5.095,3.518 8.004,3.518 6.486,0 9.956,-5.035 9.956,-12.794 0,-8.558 -5.139,-13.555 -10.875,-13.555 -2.3,0 -4.655,1.06 -6.96,2.91 l 0.114,-4.384 v -8.499 h -4.25 z"
           style="fill:#333333;fill-opacity:1;fill-rule:nonzero;stroke:none"
           id="path170" />
      </g>
      <g
         id="g172"
         transform="translate(1156.316,157.1279)">
        <path
           d="m 0,0 c 0,5.032 -2.263,7.767 -6.19,7.767 -3.53,0 -6.685,-2.834 -7.201,-7.767 z m -17.553,-2.055 c 0,8.172 5.508,13.207 11.287,13.207 6.405,0 10.02,-4.599 10.02,-11.782 0,-0.897 -0.075,-1.794 -0.198,-2.413 h -16.909 c 0.305,-5.32 3.556,-8.769 8.342,-8.769 2.41,0 4.39,0.779 6.249,2.007 l 1.521,-2.787 c -2.2,-1.441 -4.876,-2.604 -8.29,-2.604 -6.694,0 -12.022,4.893 -12.022,13.141"
           style="fill:#333333;fill-opacity:1;fill-rule:nonzero;stroke:none"
           id="path174" />
      </g>
      <g
         id="g176"
         transform="translate(1166.2506,167.6602)">
        <path
           d="m 0,0 h 3.511 l 0.357,-4.572 h 0.143 c 1.748,3.185 4.313,5.192 7.138,5.192 1.112,0 1.892,-0.141 2.68,-0.516 l -0.793,-3.728 c -0.864,0.272 -1.43,0.414 -2.436,0.414 -2.121,0 -4.655,-1.529 -6.351,-5.776 V -25.109 H 0 Z"
           style="fill:#333333;fill-opacity:1;fill-rule:nonzero;stroke:none"
           id="path178" />
      </g>
      <g
         id="g180"
         transform="translate(1184.9215,150.3145)">
        <path
           d="m 0,0 v 13.885 h -3.736 v 3.217 l 3.925,0.244 0.511,7.042 h 3.549 v -7.042 h 6.802 V 13.885 H 4.249 V -0.073 c 0,-3.071 0.988,-4.849 3.882,-4.849 0.891,0 2.045,0.337 2.86,0.674 l 0.822,-3.205 C 10.404,-7.932 8.722,-8.383 7.153,-8.383 1.81,-8.383 0,-4.996 0,0"
           style="fill:#333333;fill-opacity:1;fill-rule:nonzero;stroke:none"
           id="path182" />
      </g>
      <g
         id="g184"
         transform="translate(1198.3375,145.4165)">
        <path
           d="m 0,0 2.097,2.798 c 2.181,-1.756 4.396,-2.974 7.411,-2.974 3.298,0 4.934,1.757 4.934,3.9 0,2.584 -2.963,3.726 -5.743,4.759 -3.517,1.286 -7.487,3.018 -7.487,7.253 0,4.018 3.219,7.128 8.661,7.128 3.125,0 5.859,-1.281 7.807,-2.822 L 15.646,17.32 c -1.728,1.277 -3.502,2.234 -5.725,2.234 -3.162,0 -4.622,-1.686 -4.622,-3.6 0,-2.389 2.728,-3.296 5.573,-4.357 3.622,-1.365 7.656,-2.838 7.656,-7.618 0,-4.072 -3.234,-7.464 -9.161,-7.464 C 5.8,-3.485 2.359,-1.974 0,0"
           style="fill:#333333;fill-opacity:1;fill-rule:nonzero;stroke:none"
           id="path186" />
      </g>
    </g>
  </g>
</svg>
